<?xml version="1.0" standalone="no"?>
<!DOCTYPE svg PUBLIC "-//W3C//DTD SVG 20010904//EN"
 "http://www.w3.org/TR/2001/REC-SVG-20010904/DTD/svg10.dtd">
<svg version="1.0" xmlns="http://www.w3.org/2000/svg"
 width="300.000000pt" height="298.000000pt" viewBox="0 0 300.000000 298.000000"
 preserveAspectRatio="xMidYMid meet">
<metadata>
Created by potrace 1.10, written by Peter Selinger 2001-2011
</metadata>
<g transform="translate(0.000000,298.000000) scale(0.100000,-0.100000)"
fill="#000000" stroke="none">
<path d="M1397 2958 c-5 -16 13 -59 23 -53 9 6 0 65 -10 65 -5 0 -10 -6 -13
-12z"/>
<path d="M1700 2915 c0 -8 8 -11 20 -8 14 4 20 0 20 -11 0 -9 5 -16 10 -16 12
0 13 11 2 26 -11 17 -52 24 -52 9z"/>
<path d="M1003 2885 c-3 -10 -2 -20 3 -24 13 -9 44 -78 44 -97 0 -11 5 -14 16
-10 14 5 15 4 4 -9 -10 -12 -10 -15 4 -15 20 0 21 29 2 36 -9 3 -12 12 -9 21
5 12 3 14 -7 8 -10 -6 -12 -4 -7 8 3 10 2 17 -3 17 -5 0 -6 7 -3 17 5 12 3 14
-7 8 -10 -6 -12 -4 -7 9 5 11 3 15 -5 10 -8 -5 -9 -2 -5 9 3 9 2 19 -4 22 -5
4 -12 -1 -16 -10z"/>
<path d="M1196 2887 c-47 -11 -76 -37 -41 -37 9 0 14 4 11 9 -3 4 6 6 21 3 14
-3 23 -1 20 4 -3 5 9 9 25 9 17 0 32 6 34 13 1 7 0 8 -3 2 -2 -5 -9 -10 -14
-10 -6 0 -7 5 -4 10 3 6 5 10 3 9 -2 0 -25 -6 -52 -12z"/>
<path d="M1305 2849 c-116 -25 -180 -46 -180 -60 0 -17 10 -16 95 9 35 10 58
21 50 24 -8 3 7 5 35 4 40 -1 50 2 53 17 4 19 4 19 -53 6z"/>
<path d="M2007 2853 c-3 -4 12 -16 34 -25 23 -10 41 -13 45 -7 3 5 2 9 -3 8
-20 -3 -34 2 -28 11 3 6 2 10 -4 10 -5 0 -16 3 -24 6 -8 3 -17 2 -20 -3z"/>
<path d="M2196 2844 c-3 -8 -2 -12 4 -9 6 3 10 -2 10 -12 0 -15 2 -16 10 -3 5
8 10 21 10 28 0 17 -27 15 -34 -4z"/>
<path d="M957 2834 c-3 -3 2 -22 10 -42 8 -20 19 -47 24 -59 7 -20 11 -21 33
-11 25 11 26 30 3 27 -25 -3 -38 1 -32 11 3 6 2 10 -4 10 -6 0 -8 7 -5 15 4 8
1 15 -5 15 -6 0 -8 6 -5 14 6 14 -9 30 -19 20z"/>
<path d="M2283 2817 c-20 -26 -23 -36 -11 -43 7 -4 10 -4 6 1 -4 4 2 15 14 25
13 10 17 19 11 23 -6 4 -15 1 -20 -6z"/>
<path d="M1413 2763 c-35 -2 -63 -8 -63 -14 0 -6 -16 -8 -37 -5 -25 4 -30 3
-14 -2 20 -6 14 -9 -36 -20 -33 -7 -69 -10 -79 -6 -13 4 -15 3 -6 -3 9 -7 0
-13 -30 -22 -221 -65 -498 -281 -650 -506 -22 -33 -44 -59 -49 -58 -4 2 -5 -5
-2 -14 5 -12 3 -14 -7 -8 -8 5 -11 4 -6 -3 9 -14 -55 -143 -67 -135 -6 3 -7 1
-3 -6 10 -15 -13 -83 -25 -76 -5 4 -7 0 -4 -7 3 -7 -4 -44 -14 -83 -11 -38
-20 -61 -20 -51 -1 11 -3 17 -6 14 -3 -3 -2 -24 4 -47 10 -45 6 -54 -9 -18 -6
15 -7 7 -3 -28 3 -27 9 -52 12 -55 3 -3 6 -72 6 -155 1 -256 61 -464 201 -696
36 -60 41 -75 22 -63 -7 4 -8 3 -4 -5 4 -6 11 -9 16 -6 5 3 26 -17 46 -45 20
-27 39 -48 43 -45 4 2 25 -14 46 -35 22 -22 43 -40 48 -40 5 0 31 -18 58 -41
27 -23 83 -60 125 -84 41 -24 75 -46 75 -49 -2 -17 0 -19 10 -9 8 8 39 -2 111
-35 75 -35 95 -48 81 -53 -28 -12 -45 -10 -37 3 5 8 2 9 -9 5 -10 -4 -17 -2
-17 4 0 6 -7 9 -15 5 -8 -3 -15 -2 -15 2 0 4 -29 20 -65 36 -35 15 -101 52
-146 82 -87 57 -94 61 -83 42 4 -7 3 -8 -5 -4 -6 4 -9 11 -6 16 5 8 -63 65
-80 65 -5 1 -9 7 -7 14 1 7 -2 10 -9 5 -7 -4 -33 16 -67 52 -52 56 -53 57 -16
9 22 -27 55 -63 74 -80 19 -16 50 -45 70 -64 35 -34 82 -67 110 -77 9 -3 22
-15 29 -27 12 -18 11 -23 -9 -39 -12 -9 -19 -22 -15 -28 3 -5 1 -10 -4 -10
-15 0 -83 -138 -72 -145 11 -6 11 -6 57 83 57 109 67 127 70 130 6 8 44 -20
44 -33 0 -7 5 -17 12 -21 7 -5 9 -2 5 9 -3 9 0 18 9 21 8 3 13 2 10 -3 -3 -4
6 -13 20 -20 14 -6 22 -16 19 -21 -3 -6 -1 -10 4 -10 6 0 11 4 11 10 0 5 7 7
15 4 8 -4 12 -10 9 -15 -3 -5 9 -9 25 -9 17 0 31 -4 31 -8 0 -4 8 -8 18 -9 44
-5 88 -17 93 -26 4 -5 13 -6 20 -1 10 6 -3 14 -41 26 -30 10 -42 15 -27 12 19
-3 26 -1 22 6 -10 15 6 12 19 -4 22 -30 171 -51 346 -50 140 0 181 4 275 26
370 87 687 342 851 685 21 45 45 82 52 82 18 1 15 31 -4 31 -12 0 -14 4 -7 13
14 17 48 125 70 222 14 62 18 122 18 265 0 178 -1 190 -33 305 -18 66 -43 142
-56 168 -17 34 -19 47 -9 43 8 -4 11 -1 8 5 -4 6 -13 8 -21 5 -9 -3 -22 12
-39 45 -41 82 -108 179 -181 263 -38 43 -73 86 -78 95 -5 9 -21 23 -37 31 -16
8 -66 42 -111 74 -127 92 -360 198 -427 195 -9 0 33 -16 93 -35 59 -20 106
-38 102 -41 -3 -3 -23 2 -46 11 -22 9 -46 16 -53 15 -6 0 20 -13 58 -28 39
-15 81 -33 94 -40 14 -8 21 -9 17 -2 -9 15 3 13 34 -4 14 -7 25 -18 25 -25 0
-6 16 -21 34 -33 19 -12 31 -15 27 -8 -6 9 -4 12 5 9 8 -3 14 -11 14 -19 0 -8
8 -13 19 -11 11 2 15 -1 11 -8 -3 -6 -3 -10 2 -9 24 4 42 -9 135 -101 70 -68
99 -103 92 -110 -7 -7 -21 4 -44 35 -19 25 -35 45 -37 45 -6 0 7 -20 40 -65
43 -56 45 -59 44 -44 -1 8 3 16 8 18 14 6 74 -76 129 -174 25 -44 49 -85 54
-90 5 -6 9 -17 10 -25 0 -8 15 -61 31 -118 58 -198 65 -380 22 -602 -55 -280
-157 -483 -340 -673 -180 -186 -335 -276 -604 -348 -276 -74 -552 -37 -854
114 -224 113 -392 283 -507 514 -43 86 -106 259 -106 289 0 8 -3 13 -7 11 -5
-3 -8 7 -9 21 0 15 -6 62 -12 105 -16 104 -15 313 2 408 23 126 102 311 193
447 92 139 258 302 377 371 166 96 267 138 396 164 50 10 65 17 64 30 -1 9 2
17 7 17 5 0 9 -4 9 -9 0 -5 42 -7 98 -4 55 3 144 0 200 -7 91 -11 102 -14 102
-32 0 -17 -4 -19 -27 -13 -52 13 -383 18 -383 6 0 -6 8 -11 18 -12 15 0 14 -2
-3 -10 -16 -7 -12 -8 14 -4 18 3 45 6 60 6 22 1 21 3 -9 9 -47 11 134 1 230
-11 41 -6 83 -12 92 -15 12 -3 20 5 29 29 l12 34 55 -14 c30 -8 56 -12 59 -9
6 6 -64 26 -91 26 -12 0 -16 5 -12 15 3 9 0 15 -9 15 -8 0 -15 -4 -15 -9 0 -9
-32 -8 -165 8 -49 6 -106 12 -125 14 -19 2 -63 2 -97 0z"/>
<path d="M2276 2743 c-3 -4 8 -15 24 -25 33 -19 50 -23 50 -10 0 11 -66 42
-74 35z"/>
<path d="M1806 2659 c-5 -24 -10 -30 -23 -25 -38 15 -174 27 -268 24 -86 -3
-100 -5 -103 -20 -3 -16 8 -18 125 -18 135 0 206 -7 198 -20 -3 -5 -59 -6
-125 -3 -122 6 -265 -7 -347 -32 -36 -11 -43 -11 -43 0 0 8 -8 16 -17 19 -10
3 -5 4 12 2 44 -6 175 25 175 41 0 7 -8 13 -17 13 -45 -1 -185 -40 -244 -68
-36 -17 -74 -29 -85 -26 -13 3 -52 -17 -119 -60 -54 -37 -103 -66 -108 -66
-20 0 -206 -201 -260 -281 -56 -85 -153 -277 -143 -286 2 -2 7 5 11 16 3 12
13 21 22 21 14 0 14 -3 -2 -20 -10 -11 -28 -55 -40 -97 -15 -53 -24 -71 -28
-58 -3 11 -3 -1 0 -27 3 -31 1 -48 -5 -48 -8 0 -10 -61 -8 -192 3 -206 10
-244 73 -413 124 -334 393 -601 714 -710 70 -24 129 -34 84 -15 -19 8 -19 9 3
9 13 1 22 -5 22 -13 0 -32 244 -58 404 -44 61 6 112 12 114 13 2 2 -1 12 -7
23 -10 18 -15 19 -48 9 -59 -18 -284 -14 -381 7 -88 19 -197 54 -172 55 8 1
-22 17 -67 35 -129 53 -255 129 -331 200 -17 16 -32 26 -32 21 0 -5 -20 11
-45 35 -24 24 -41 48 -38 53 3 6 1 7 -5 3 -12 -7 -38 32 -33 49 1 6 -1 7 -5 2
-10 -9 -45 44 -37 56 3 6 1 7 -5 3 -11 -7 -17 6 -13 27 1 5 -4 5 -10 1 -9 -5
-10 -2 -6 10 5 11 3 15 -5 10 -8 -5 -9 -2 -5 10 4 10 -1 24 -13 36 -11 11 -17
20 -12 20 4 0 -1 5 -10 10 -11 7 -15 21 -14 45 3 29 1 33 -10 24 -16 -13 -18
-1 -5 20 5 8 14 10 22 5 12 -6 12 -5 0 9 -13 16 -14 16 -26 0 -11 -15 -13 -15
-19 5 -4 12 -4 27 0 33 4 7 3 9 -4 6 -6 -5 -18 29 -32 90 -13 54 -25 105 -28
113 -2 8 -7 57 -9 109 -4 91 -3 93 17 88 16 -4 20 -2 16 8 -3 8 0 15 6 17 6 2
8 13 4 25 -4 14 -12 20 -22 16 -9 -3 -14 1 -14 12 0 9 5 13 10 10 6 -3 10 3
10 14 0 11 10 27 21 35 15 10 20 21 16 35 -8 30 29 162 75 271 51 121 125 232
228 343 84 89 97 116 24 49 -74 -68 -152 -169 -204 -267 -29 -53 -54 -94 -56
-92 -5 5 79 158 118 215 36 52 188 212 202 212 5 0 45 23 88 51 43 29 81 50
84 47 2 -3 -28 -28 -68 -55 -45 -31 -72 -56 -72 -66 1 -10 -20 -36 -48 -58
-27 -23 -46 -44 -44 -47 3 -2 25 14 48 37 24 22 48 41 55 41 7 0 13 7 13 15 0
26 167 141 193 132 7 -2 -12 -16 -40 -31 -54 -27 -74 -45 -27 -24 21 10 27 9
35 -3 5 -8 9 -9 9 -3 0 13 68 44 175 81 129 44 361 65 490 44 32 -6 52 -5 56
2 4 5 19 7 35 3 16 -3 35 -8 42 -9 8 -2 18 -10 23 -18 5 -8 9 -11 9 -7 0 15
133 -41 223 -95 88 -52 231 -170 251 -206 5 -9 18 -22 28 -29 10 -7 18 -19 18
-26 0 -8 7 -17 16 -20 8 -3 12 -10 9 -16 -3 -5 -2 -10 4 -10 14 0 62 -71 55
-82 -3 -4 0 -8 6 -8 6 0 8 -5 5 -10 -3 -6 1 -13 9 -16 9 -3 13 -10 10 -16 -3
-5 3 -18 15 -29 12 -11 19 -24 16 -30 -4 -5 -1 -9 5 -9 7 0 9 -8 5 -19 -3 -11
1 -26 10 -35 9 -9 17 -32 18 -51 1 -19 5 -35 8 -35 8 0 30 -92 29 -125 0 -17
4 -50 9 -75 9 -38 9 -31 6 43 -4 61 -2 87 6 87 9 0 10 -59 6 -222 -5 -218 -12
-278 -34 -285 -6 -2 -5 26 5 83 10 59 11 93 4 108 -5 11 -14 33 -20 47 -26 65
-104 126 -204 158 -21 7 -38 18 -38 24 0 6 -20 52 -44 102 -36 73 -58 104
-109 152 -66 61 -142 110 -209 134 -21 7 -38 17 -38 21 0 14 -109 78 -175 104
-36 13 -104 28 -152 34 -74 8 -102 7 -180 -9 -106 -22 -205 -67 -267 -123 -24
-21 -53 -38 -64 -38 -11 0 -32 -13 -45 -30 -24 -27 -31 -30 -89 -30 -108 -1
-175 -37 -335 -178 -81 -72 -97 -103 -90 -164 9 -67 23 -138 30 -145 7 -7 12
61 8 111 -2 18 1 26 8 21 6 -3 11 1 11 9 0 9 -4 16 -9 16 -5 0 -12 7 -15 15
-7 19 49 81 59 66 3 -6 2 -11 -3 -11 -13 0 -21 -56 -10 -72 5 -9 8 -6 8 10 0
67 82 157 190 210 69 34 82 37 165 37 79 0 96 -3 137 -26 l46 -27 31 63 c38
76 82 117 175 161 211 100 477 9 573 -194 l27 -58 55 1 c95 0 150 -59 166
-180 11 -81 10 -80 62 -81 86 -2 157 -52 231 -163 63 -95 54 -160 -30 -225
-85 -64 -40 -61 -848 -64 -770 -3 -829 0 -902 40 -62 35 -98 102 -98 182 0 43
29 102 55 112 13 5 12 10 -4 33 -11 15 -24 42 -29 61 -6 22 -11 27 -11 15 -1
-12 8 -38 18 -59 l20 -38 -25 -26 c-24 -27 -64 -102 -64 -122 0 -5 4 -10 10
-10 5 0 12 -17 16 -37 4 -21 22 -60 40 -87 36 -54 81 -80 162 -96 26 -5 290
-8 587 -7 470 2 700 -3 615 -13 -14 -1 -34 -4 -46 -5 -12 -1 -47 -15 -78 -30
-88 -43 -279 -61 -456 -42 -41 4 -115 11 -165 16 -49 4 -107 15 -129 24 -30
14 -72 17 -200 17 -108 0 -179 5 -215 15 -58 15 -108 55 -118 93 -5 21 -7 22
-15 8 -5 -9 -17 -16 -26 -16 -14 0 -15 -2 -2 -9 8 -6 18 -7 22 -5 4 3 8 -2 8
-10 0 -9 -5 -16 -10 -16 -6 0 -9 -6 -8 -12 2 -8 -6 -12 -19 -10 -26 4 -27 0
-12 -31 10 -22 10 -22 -6 -2 -10 12 -14 30 -10 45 4 20 3 22 -6 10 -8 -12 -9
-8 -5 15 5 22 4 26 -4 15 -9 -13 -10 -13 -10 0 0 8 4 21 9 28 6 10 11 6 19
-17 10 -29 26 -46 17 -19 -2 7 -11 38 -21 68 -9 30 -18 79 -20 110 -2 30 -6
71 -9 90 -3 19 -2 29 1 23 15 -32 21 -5 21 90 0 56 -2 96 -4 90 -3 -7 -10 -13
-16 -13 -7 0 -12 -13 -13 -30 -1 -16 3 -27 7 -24 5 3 9 -4 9 -15 0 -11 -5 -23
-10 -26 -7 -4 -10 -49 -8 -120 2 -63 7 -108 11 -101 5 6 6 -6 3 -27 -3 -22 -1
-35 5 -32 12 8 11 -19 -2 -48 -9 -19 -6 -35 13 -83 14 -34 30 -58 37 -56 7 1
10 -2 6 -7 -3 -6 15 -46 40 -90 25 -44 45 -83 45 -86 0 -8 15 -26 68 -80 24
-25 44 -54 45 -64 1 -19 3 -19 18 -5 16 15 17 14 12 -5 -4 -15 -1 -21 11 -21
8 0 22 -12 30 -28 8 -15 24 -36 36 -47 17 -16 24 -17 41 -7 14 9 18 9 17 1 -2
-7 9 -19 24 -28 21 -12 30 -13 39 -4 7 7 9 16 4 20 -4 5 -10 2 -12 -4 -6 -17
-24 -17 -21 0 2 6 -3 11 -9 9 -7 -1 -13 2 -13 6 0 5 -13 18 -29 30 -29 21 -30
21 -26 2 2 -11 -1 -20 -7 -20 -5 0 -8 6 -5 14 7 17 -120 159 -133 151 -5 -3
-11 -1 -14 4 -3 5 2 12 11 15 12 5 33 -10 75 -53 64 -66 174 -148 185 -137 8
8 -6 23 -26 28 -17 4 -78 56 -160 135 -35 35 -66 63 -68 63 -1 0 -3 -7 -3 -15
0 -8 -7 -15 -15 -15 -8 0 -14 6 -13 13 2 6 -4 10 -12 9 -8 -2 -12 0 -8 3 11
11 -11 47 -24 39 -7 -5 -8 -2 -4 5 5 7 1 20 -6 29 -19 22 -98 168 -98 181 0
12 39 8 65 -7 71 -41 100 -46 285 -49 151 -4 195 -8 238 -24 29 -10 71 -19 93
-19 22 0 99 -7 172 -16 178 -22 406 -5 486 36 55 28 221 44 386 37 163 -7 179
-4 204 39 23 39 10 46 -30 16 -33 -25 -77 -43 -83 -34 -8 13 6 26 74 71 84 56
110 80 110 103 0 19 16 23 39 9 9 -6 11 -18 6 -42 -5 -19 -10 -29 -12 -23 -6
18 -63 -38 -63 -63 0 -39 19 -35 31 7 7 22 16 40 21 40 15 0 9 -17 -45 -128
-60 -123 -125 -219 -207 -306 -58 -62 -195 -170 -230 -181 -11 -3 -20 -13 -20
-21 0 -8 -4 -12 -10 -9 -19 12 -9 25 48 61 31 21 51 39 44 41 -6 3 -10 9 -6
14 3 5 1 9 -4 9 -5 0 -15 -13 -22 -29 -8 -19 -17 -28 -26 -24 -8 3 -21 -2 -28
-12 -12 -17 -13 -17 -19 0 -5 12 -1 18 13 22 11 3 20 9 20 13 0 3 25 24 55 45
56 38 83 41 51 6 -11 -12 -13 -21 -7 -25 10 -7 90 59 154 128 52 56 171 234
185 277 9 27 9 30 -1 15 -103 -159 -136 -204 -197 -269 -63 -67 -76 -77 -106
-77 -39 0 -117 -46 -107 -63 4 -6 0 -8 -9 -4 -9 3 -24 -1 -35 -9 -10 -9 -12
-12 -4 -8 10 5 12 3 7 -5 -5 -7 -15 -10 -23 -7 -8 3 -12 2 -9 -3 7 -11 -43
-33 -56 -25 -6 4 -8 2 -4 -4 8 -13 -59 -36 -75 -26 -8 5 -9 3 -4 -6 6 -10 3
-12 -13 -8 -14 4 -20 2 -16 -4 5 -7 -3 -9 -22 -4 -23 5 -26 4 -14 -5 12 -8 9
-9 -13 -4 -21 4 -27 3 -21 -6 5 -9 -2 -10 -27 -6 -26 5 -30 4 -19 -4 11 -8 6
-9 -22 -4 -21 3 -39 1 -43 -5 -3 -5 -14 -10 -23 -10 -15 0 -15 2 -2 11 12 9
11 9 -5 3 -30 -12 -245 -13 -238 -1 4 6 -8 7 -32 3 -26 -5 -35 -4 -30 4 5 7
-2 9 -21 4 -21 -5 -25 -4 -19 6 6 10 2 11 -19 6 -17 -4 -25 -3 -22 3 4 5 -3 7
-16 3 -15 -4 -19 -2 -13 7 5 10 2 11 -14 6 -13 -4 -21 -2 -21 5 0 7 -7 10 -15
6 -8 -3 -15 -1 -15 5 0 5 -6 9 -12 7 -19 -3 -58 12 -58 22 0 5 -7 7 -15 4 -8
-4 -17 1 -21 10 -3 9 -10 13 -15 10 -5 -3 -9 -1 -9 4 0 6 -22 24 -50 42 -27
18 -61 45 -74 61 -29 34 -36 36 -36 11 0 -11 27 -38 67 -67 37 -28 76 -60 87
-72 11 -13 26 -23 33 -23 7 0 13 -7 13 -16 0 -12 7 -14 30 -9 23 5 32 3 36
-10 4 -9 13 -14 20 -11 8 3 14 1 14 -5 0 -6 9 -8 20 -4 12 4 20 2 20 -5 0 -6
5 -8 10 -5 6 3 10 1 10 -5 0 -7 8 -9 21 -5 14 5 19 3 15 -4 -5 -7 4 -9 26 -6
26 4 29 3 13 -4 -15 -8 -9 -9 25 -5 30 3 38 1 25 -4 -16 -8 -15 -10 14 -15 19
-4 45 -6 60 -6 19 1 15 4 -14 9 -23 5 2 6 60 3 154 -8 369 34 487 93 52 26 62
29 53 14 -3 -5 -1 -10 6 -10 9 0 9 -3 0 -14 -10 -12 -8 -19 6 -33 11 -11 23
-15 29 -11 5 5 45 31 89 60 179 114 352 326 427 522 40 105 79 264 89 371 7
61 15 112 19 115 5 3 10 37 12 75 2 57 0 70 -12 70 -12 0 -14 -12 -12 -62 3
-52 1 -63 -12 -63 -23 0 -23 125 -1 134 9 3 15 18 15 36 0 18 -4 29 -10 25 -6
-3 -10 5 -10 18 0 39 -49 198 -76 246 -27 50 -28 51 -13 51 5 0 7 -4 4 -10 -3
-5 0 -10 8 -10 19 0 60 -103 97 -240 16 -58 29 -96 29 -84 1 32 -34 162 -63
234 -14 35 -24 66 -21 68 3 3 12 -11 20 -31 8 -21 18 -37 20 -37 3 0 -1 15 -8
33 -18 42 -60 118 -51 92 17 -52 13 -56 -13 -10 -16 28 -41 68 -56 90 -28 41
-33 55 -19 55 4 0 22 -25 40 -55 18 -30 35 -55 38 -55 6 0 -22 48 -61 107 -20
31 -21 31 -34 11 -12 -19 -14 -17 -52 33 -22 29 -44 56 -50 60 -7 4 -9 11 -6
16 4 5 -15 30 -41 54 -26 24 -36 32 -23 17 33 -38 12 -36 -24 2 -16 17 -23 30
-16 30 29 0 -126 108 -234 163 -55 28 -247 107 -260 107 -1 0 -5 -14 -9 -31z
m260 -89 c130 -65 242 -136 231 -146 -3 -3 -34 16 -70 41 -66 46 -249 138
-300 150 -28 7 -37 25 -14 25 7 0 76 -31 153 -70z m-199 20 c90 -21 244 -89
320 -141 209 -143 394 -405 446 -634 22 -95 0 -78 -29 23 -43 147 -162 339
-291 464 -88 87 -142 128 -239 183 -75 43 -242 105 -284 105 -10 0 -22 5 -25
10 -9 14 9 13 102 -10z m-161 -454 c74 -16 167 -60 214 -102 19 -17 53 -37 75
-45 56 -19 168 -98 211 -150 20 -24 59 -89 85 -145 49 -103 51 -105 140 -142
88 -37 149 -110 164 -197 l7 -40 -26 35 c-14 19 -40 55 -57 80 -46 65 -117
117 -183 134 -31 8 -60 17 -64 20 -5 3 -14 31 -21 63 -24 113 -97 184 -188
187 -32 1 -40 6 -52 31 -8 17 -20 34 -28 38 -7 4 -13 14 -13 20 0 14 -77 90
-132 131 -60 44 -162 75 -253 77 -62 1 -72 3 -45 9 54 11 100 10 166 -4z
m-230 -8 c5 -8 2 -9 -9 -5 -10 3 -17 2 -17 -3 0 -6 -8 -10 -17 -10 -10 0 -31
-7 -47 -15 -15 -8 -33 -12 -40 -8 -6 3 -8 3 -4 -2 4 -4 -14 -22 -39 -39 -26
-18 -65 -59 -87 -93 -42 -64 -59 -72 -99 -52 -30 16 -30 15 -17 38 6 12 31 31
56 43 25 11 52 31 60 44 8 12 32 30 52 38 20 9 53 26 72 38 56 34 123 47 136
26z m-1047 -402 c-7 -47 -17 -86 -21 -86 -4 0 -8 6 -8 12 0 23 33 168 38 164
2 -3 -2 -43 -9 -90z m336 -1136 c-8 -13 68 -71 85 -65 8 4 11 3 7 -1 -8 -8 11
-34 25 -34 5 0 6 6 2 13 -4 7 -3 9 2 4 5 -5 9 -14 9 -20 0 -5 6 -12 14 -15 9
-3 11 0 6 8 -5 9 -4 11 4 6 6 -4 9 -11 6 -16 -5 -9 151 -88 235 -120 40 -15
61 -30 42 -30 -23 0 -173 62 -234 96 -66 37 -215 150 -238 180 -12 16 -12 17
0 7 21 -19 34 -16 19 5 -13 15 -12 16 3 3 10 -7 16 -17 13 -21z"/>
<path d="M413 2380 c-18 -16 -33 -35 -33 -40 0 -6 -5 -8 -10 -5 -6 4 -10 3 -9
-2 3 -20 -2 -34 -11 -28 -6 4 -9 3 -8 -2 4 -15 -13 -53 -22 -48 -4 3 -7 -3 -6
-13 0 -9 -4 -16 -11 -15 -8 2 -10 -4 -6 -14 4 -11 3 -14 -5 -9 -8 5 -10 1 -5
-10 4 -12 3 -15 -5 -10 -8 5 -10 1 -5 -10 4 -12 3 -15 -5 -10 -8 4 -10 2 -6
-7 9 -23 -15 -31 -36 -12 -10 9 -23 14 -28 11 -6 -3 -12 1 -16 9 -6 17 -32 20
-41 5 -9 -14 15 -42 30 -36 7 2 29 -1 49 -8 27 -9 33 -15 24 -24 -6 -6 -8 -15
-4 -19 4 -5 13 0 20 9 7 10 16 15 20 11 4 -4 4 1 0 11 -5 14 -4 17 5 12 6 -4
10 -4 9 1 -6 17 45 112 56 106 6 -3 8 -3 4 2 -11 12 21 67 34 59 7 -4 8 -3 4
4 -4 7 -3 12 3 12 10 0 71 79 71 92 0 16 -26 6 -57 -22z"/>
<path d="M612 2088 c-59 -94 -82 -144 -86 -185 -2 -21 -18 -80 -35 -131 -18
-54 -31 -115 -31 -143 0 -28 -3 -48 -7 -46 -13 8 -15 -185 -2 -251 6 -35 13
-62 14 -60 1 2 5 26 8 53 4 34 3 42 -3 25 -5 -17 -8 14 -9 93 -1 117 -1 117
23 117 18 0 25 7 30 31 9 47 8 53 -9 39 -8 -7 -15 -21 -15 -31 0 -11 -4 -19
-8 -19 -11 0 1 90 23 168 12 44 21 59 27 50 5 -8 6 -2 2 16 -5 22 -4 27 6 21
9 -5 11 -4 6 4 -11 18 2 63 16 55 7 -5 8 -3 3 5 -9 15 24 93 36 85 5 -3 6 1 3
9 -3 8 0 18 7 23 8 5 10 3 4 -6 -5 -9 -4 -11 4 -6 7 5 11 26 10 50 -2 26 4 51
15 69 10 15 16 27 13 27 -3 0 -23 -28 -45 -62z"/>
<path d="M169 2102 c5 -10 29 -24 52 -31 23 -7 50 -22 59 -33 19 -24 40 -17
40 14 0 17 -4 19 -26 14 -18 -5 -24 -3 -18 5 4 8 3 9 -5 5 -14 -9 -53 2 -46
14 3 4 -3 6 -14 3 -10 -3 -22 0 -25 6 -5 7 0 9 11 5 15 -5 16 -4 3 5 -25 18
-42 14 -31 -7z"/>
<path d="M100 2106 c0 -1 5 -17 11 -33 9 -27 20 -34 80 -53 38 -12 69 -27 69
-32 0 -5 5 -6 10 -3 17 10 12 38 -6 31 -9 -4 -13 -2 -8 5 4 8 -1 9 -16 4 -16
-5 -20 -4 -15 5 5 9 1 10 -15 5 -16 -5 -20 -4 -15 5 5 9 1 10 -16 5 -13 -4
-21 -4 -18 -1 4 4 -7 20 -23 36 -27 28 -38 35 -38 26z"/>
<path d="M1514 2050 c-103 -15 -252 -108 -239 -151 3 -9 1 -20 -4 -24 -7 -3
-8 0 -5 9 3 9 3 16 0 16 -4 0 -18 -25 -32 -55 -14 -30 -29 -55 -33 -55 -5 0
-34 11 -64 25 -31 13 -78 27 -104 31 -129 17 -326 -97 -348 -201 l-6 -30 15
30 15 30 -5 -45 c-5 -51 -11 -60 -24 -40 -8 12 -10 11 -10 -5 1 -49 21 -101
47 -123 l28 -23 -31 -27 c-41 -35 -54 -62 -54 -109 1 -64 38 -124 95 -153 l50
-25 771 -3 c424 -1 780 1 792 5 12 5 -99 8 -246 7 -147 -1 -248 1 -224 3 37 4
41 6 33 22 -9 15 -17 17 -58 10 -26 -4 -54 -8 -60 -8 -7 -1 -13 -7 -13 -15 0
-9 -8 -12 -27 -8 -23 4 -25 6 -8 12 35 12 -6 18 -118 16 -68 -1 -107 2 -107 9
0 5 -4 4 -8 -3 -5 -7 -22 -13 -38 -13 -76 0 -114 1 -114 5 0 2 6 22 14 44 8
22 12 42 10 45 -6 5 -33 108 -39 145 -5 34 -15 40 -30 19 -12 -16 -13 -16 -19
7 -5 19 -11 23 -27 19 -24 -7 -45 17 -26 29 7 4 8 8 2 8 -18 0 -31 -14 -45
-50 -8 -19 -20 -41 -28 -49 -8 -9 -11 -24 -7 -39 3 -14 2 -28 -3 -31 -5 -3
-12 -35 -15 -71 -4 -36 -4 -59 -1 -52 8 17 64 16 64 -2 0 -21 -21 -31 -31 -15
-7 11 -9 11 -9 -3 0 -9 6 -19 13 -21 6 -3 -25 -6 -71 -6 -65 -1 -84 2 -88 14
-4 8 -11 12 -16 9 -6 -4 -5 -10 3 -15 11 -7 10 -9 -3 -9 -9 0 -18 4 -20 10 -4
13 -167 21 -188 10 -14 -7 -19 -5 -23 11 -3 12 -12 19 -23 17 -22 -4 -61 51
-70 99 -5 28 -1 42 23 76 33 46 48 107 27 107 -14 0 -31 51 -37 114 -4 31 0
44 19 63 13 12 21 23 18 23 -3 0 3 12 14 28 10 15 17 33 15 40 -3 7 4 12 15
12 11 0 22 5 24 10 2 6 16 12 31 14 15 1 30 6 34 9 3 4 16 7 29 7 12 0 24 6
27 14 6 14 87 27 87 14 0 -5 9 -8 20 -8 23 0 107 -26 134 -42 17 -9 24 -6 43
16 13 15 23 21 23 14 0 -7 9 6 19 29 11 23 38 62 60 86 23 24 41 49 41 54 0 5
12 16 28 23 15 8 33 18 40 24 36 26 209 28 262 2 40 -19 105 -58 137 -82 32
-24 103 -118 103 -137 0 -31 31 -49 79 -47 25 2 53 2 62 1 25 -2 67 -49 75
-84 4 -18 9 -27 11 -20 7 21 -25 81 -53 100 -19 12 -47 18 -83 18 l-56 0 -35
64 c-64 118 -175 202 -283 216 -83 11 -93 12 -143 5z m-194 -665 c7 -24 17
-42 22 -39 6 4 7 -2 3 -15 -3 -11 -3 -21 2 -21 4 0 8 -10 9 -22 0 -13 4 -35 8
-50 7 -25 6 -28 -17 -28 -20 0 -27 6 -32 30 -6 26 -11 30 -40 30 -28 0 -33 -4
-38 -30 -6 -25 -11 -30 -36 -30 l-29 0 36 110 c36 109 37 110 68 110 29 0 32
-4 44 -45z m14 -195 c26 0 34 -4 30 -14 -3 -9 -20 -13 -49 -12 -55 3 -59 6
-43 41 11 25 12 26 20 6 5 -16 16 -21 42 -21z"/>
<path d="M1266 1364 c-4 -16 -9 -37 -12 -46 -4 -14 1 -18 21 -18 25 0 26 2 20
33 -12 53 -21 63 -29 31z"/>
<path d="M88 2013 c-3 -4 0 -61 5 -125 7 -89 13 -118 23 -118 16 0 16 -5 4 85
-6 50 -5 74 3 84 10 12 9 13 -8 7 -18 -6 -19 -6 -4 9 14 14 18 14 47 -1 18 -8
32 -19 32 -23 0 -4 16 -5 35 -3 26 3 35 9 35 23 0 11 -7 19 -16 19 -9 0 -12
-5 -8 -12 5 -8 2 -9 -12 -4 -10 5 -27 11 -36 13 -10 3 -16 9 -13 13 3 5 -5 6
-17 2 -14 -3 -19 -1 -14 6 5 8 1 10 -10 5 -10 -4 -22 0 -29 11 -7 9 -15 14
-17 9z"/>
<path d="M177 1885 c-22 -106 -20 -120 7 -92 8 8 10 20 5 32 -4 11 -8 27 -8
35 -1 13 0 13 9 0 9 -13 10 -13 9 0 0 8 -4 24 -8 35 -7 18 -9 17 -14 -10z"/>
<path d="M157 1710 c-11 -21 -12 -30 -3 -34 6 -2 1 -5 -12 -5 -16 -1 -26 -10
-33 -31 -11 -31 -18 -34 -56 -24 -13 4 -20 11 -16 18 4 8 2 8 -7 -1 -22 -20
-1 -32 51 -29 47 3 50 1 45 -18 -16 -67 -18 -96 -6 -96 8 0 11 -22 8 -75 -3
-69 2 -91 15 -65 3 6 4 5 3 -2 -2 -7 -12 -12 -22 -11 -44 6 -114 -9 -114 -24
0 -12 8 -14 37 -9 87 16 113 26 113 46 0 10 -4 22 -10 25 -6 3 -10 49 -10 103
0 69 3 93 10 82 7 -10 9 1 4 37 -4 31 -2 58 4 65 11 14 26 78 19 78 -3 0 -12
-13 -20 -30z"/>
<path d="M277 1478 c3 -68 7 -125 9 -127 2 -2 4 46 4 107 0 60 3 117 6 126 4
10 1 16 -9 16 -14 0 -15 -16 -10 -122z"/>
<path d="M2726 1475 c-7 -75 -19 -157 -40 -280 -2 -11 -11 -40 -21 -65 -9 -25
-18 -53 -20 -62 -8 -37 -103 -217 -148 -280 -58 -81 -177 -202 -263 -266 -85
-63 -227 -133 -339 -167 -123 -37 -126 -38 -116 -53 18 -29 237 43 371 122
180 105 385 330 474 520 76 163 130 412 117 546 l-7 75 -8 -90z"/>
<path d="M2250 1501 c30 -4 66 -11 80 -15 22 -6 23 -5 7 5 -11 6 -47 13 -80
15 l-62 3 55 -8z"/>
<path d="M391 1428 c-1 -31 4 -60 9 -63 16 -10 17 27 1 85 -9 33 -9 32 -10
-22z"/>
<path d="M1555 1463 c7 -25 -4 -30 -24 -10 -11 10 -13 8 -8 -10 2 -12 0 -24
-6 -26 -8 -2 -7 -22 4 -68 l15 -64 14 77 14 77 29 -6 c28 -6 28 -5 16 16 -17
25 -31 28 -23 4 4 -12 -1 -10 -16 7 -21 24 -21 24 -15 3z"/>
<path d="M1832 1472 c-7 -5 -10 -16 -6 -25 3 -10 1 -17 -6 -17 -6 0 -8 5 -5
10 13 20 -14 9 -30 -12 -16 -23 -16 -23 -31 -3 -15 20 -15 20 -30 0 -9 -11
-14 -32 -11 -47 2 -15 0 -25 -3 -23 -4 2 -15 -30 -26 -71 -15 -64 -21 -74 -38
-72 -19 3 -32 32 -51 113 l-8 30 -8 -35 c-25 -99 -30 -110 -49 -110 -14 0 -22
11 -29 38 -5 20 -18 66 -27 102 -10 36 -17 78 -17 93 1 25 0 26 -13 10 -16
-21 -18 -63 -4 -63 6 0 10 -5 10 -11 0 -6 -7 -8 -16 -5 -13 5 -15 2 -10 -16 3
-13 6 -30 6 -37 0 -12 3 -12 12 -3 22 22 30 12 23 -30 -6 -36 -5 -40 10 -34
15 5 17 2 12 -24 -6 -26 -3 -31 19 -36 14 -4 30 -2 36 4 7 7 19 7 34 2 20 -8
24 -6 24 8 1 15 2 15 13 1 22 -29 43 -28 76 1 20 19 31 38 31 55 0 18 6 29 20
32 11 3 20 14 20 25 0 26 21 18 32 -11 6 -19 4 -24 -12 -28 -12 -3 -19 -8 -17
-12 2 -3 10 -20 17 -38 14 -32 46 -54 71 -49 71 14 90 20 108 37 25 24 30 89
6 89 -8 0 -15 4 -15 10 0 5 -11 12 -25 16 -18 4 -25 13 -25 31 0 21 -4 24 -32
21 -50 -5 -41 -29 17 -51 27 -10 55 -23 62 -29 21 -17 15 -48 -17 -80 -27 -26
-36 -30 -67 -25 -34 6 -83 40 -83 59 0 4 16 8 35 8 25 0 35 -4 35 -16 0 -11 8
-14 28 -12 19 2 27 9 27 23 0 14 -10 21 -39 27 -53 11 -76 34 -76 74 0 64 96
89 147 38 14 -14 28 -23 30 -20 9 9 -40 46 -69 52 -33 8 -37 24 -6 24 12 0 19
3 16 6 -11 10 -63 14 -76 6z"/>
<path d="M1630 1444 c0 -11 -5 -25 -10 -30 -13 -13 -2 -46 12 -38 6 4 8 -1 4
-14 -4 -11 -4 -33 0 -49 7 -24 9 -18 21 42 12 66 11 71 -7 90 -20 19 -20 19
-20 -1z"/>
<path d="M401 1318 c0 -20 3 -39 7 -42 5 -3 7 -20 5 -38 -4 -26 -2 -30 7 -18
9 12 10 7 6 -20 -3 -19 -3 -29 0 -22 3 6 12 12 20 12 8 0 14 5 14 10 0 6 -5
10 -11 10 -7 0 -10 12 -7 30 3 17 1 30 -4 30 -4 0 -8 11 -8 25 0 14 -4 25 -9
25 -5 0 -12 8 -14 18 -3 9 -5 0 -6 -20z"/>
<path d="M146 1278 c4 -7 3 -8 -5 -4 -14 9 -121 -21 -121 -34 0 -14 16 -12 84
8 56 17 87 42 51 42 -10 0 -13 -5 -9 -12z"/>
<path d="M157 1228 c-15 -6 -24 -14 -20 -21 4 -6 0 -8 -10 -4 -37 14 -106 -18
-85 -39 8 -7 152 43 156 54 5 16 -11 20 -41 10z"/>
<path d="M443 1153 c-7 -2 -13 -12 -13 -21 0 -15 2 -15 10 -2 8 12 10 12 10
-5 0 -17 2 -17 10 -5 20 30 12 45 -17 33z"/>
<path d="M133 1122 c-24 -9 -43 -22 -43 -30 0 -7 3 -12 8 -10 4 2 28 11 55 22
26 10 47 23 47 27 0 13 -18 10 -67 -9z"/>
<path d="M30 1070 c0 -11 7 -20 15 -20 8 0 15 9 15 20 0 11 -7 20 -15 20 -8 0
-15 -9 -15 -20z"/>
<path d="M2890 1080 c-16 -10 -20 -8 58 -30 24 -6 46 -9 49 -6 10 9 -7 23 -34
29 -16 3 -35 8 -43 11 -8 3 -22 2 -30 -4z"/>
<path d="M196 1073 c-11 -12 -7 -45 6 -37 6 4 8 3 4 -4 -8 -13 31 -117 73
-195 18 -33 29 -67 26 -77 -8 -26 19 -45 36 -24 11 13 10 19 -1 37 -8 12 -27
47 -44 77 -16 30 -33 57 -38 58 -4 2 -6 7 -3 12 3 5 -4 32 -15 60 -11 28 -20
59 -20 70 0 20 -13 33 -24 23z"/>
<path d="M2860 1043 c0 -12 38 -43 53 -43 10 0 16 -4 12 -9 -6 -11 6 -20 45
-31 27 -8 30 -6 30 15 0 18 -7 25 -32 30 -60 13 -84 25 -69 35 10 5 6 8 -12 7
-15 -1 -27 -3 -27 -4z"/>
<path d="M2870 977 c0 -7 12 -18 28 -24 26 -11 25 -12 -10 -6 -37 5 -38 5 -40
-28 0 -19 0 -42 0 -52 1 -11 -10 -33 -25 -50 -15 -18 -24 -24 -20 -14 4 11 1
17 -9 17 -8 0 -13 -4 -10 -9 3 -5 -1 -11 -9 -15 -8 -3 -12 -12 -9 -20 3 -9 -5
-25 -20 -39 -31 -29 -33 -41 -6 -32 15 5 20 2 20 -12 1 -17 1 -17 14 -1 7 10
15 16 18 13 2 -3 5 1 5 9 0 8 18 49 40 92 33 64 39 84 32 103 -5 13 -8 25 -7
26 2 2 27 -6 57 -17 38 -15 50 -23 40 -29 -11 -7 -11 -9 3 -9 9 0 21 13 27 30
5 17 6 30 1 30 -4 0 -16 3 -25 6 -10 4 -15 2 -13 -6 2 -7 -3 -15 -11 -17 -9
-4 -11 0 -6 16 4 13 2 21 -5 21 -6 0 -18 7 -26 15 -19 18 -34 19 -34 2z"/>
<path d="M2756 962 c-10 -9 -6 -23 4 -17 6 3 10 2 10 -3 0 -14 35 -21 51 -11
7 4 11 9 9 11 -15 10 -70 25 -74 20z"/>
<path d="M2903 843 c-18 -7 -16 -27 6 -54 16 -20 21 -22 35 -10 24 20 17 66
-9 67 -11 0 -26 -1 -32 -3z"/>
<path d="M2533 609 c-9 -9 -6 -17 13 -31 13 -11 24 -26 24 -34 0 -13 12 -18
25 -11 5 2 40 -44 40 -53 0 -13 32 -48 45 -50 27 -4 40 0 40 12 0 6 8 20 18
31 9 11 12 18 6 14 -15 -9 -96 52 -87 65 3 7 1 8 -6 4 -15 -10 -43 13 -34 27
3 6 1 7 -5 3 -6 -4 -20 2 -32 14 -23 23 -31 25 -47 9z"/>
<path d="M1820 434 l-45 -14 44 6 c43 5 95 24 61 23 -8 -1 -35 -7 -60 -15z"/>
<path d="M1715 413 c-11 -2 -56 -8 -100 -12 l-80 -9 101 3 c56 1 110 8 120 14
18 10 18 10 -1 9 -11 0 -29 -3 -40 -5z"/>
<path d="M2258 369 c-15 -11 -72 -43 -125 -70 -54 -28 -84 -47 -68 -44 35 8
159 76 201 111 36 29 29 31 -8 3z"/>
<path d="M1470 345 c0 -22 -3 -23 -37 -18 -28 5 -34 3 -28 -7 10 -17 255 -7
340 14 l60 15 -60 -4 c-33 -2 -90 -7 -126 -11 -74 -7 -159 3 -125 16 19 6 19
7 -2 12 -18 5 -22 2 -22 -17z"/>
<path d="M914 218 c-4 -13 -7 -26 -6 -30 1 -5 -3 -8 -9 -8 -8 0 -7 -6 2 -17
12 -15 12 -16 -1 -8 -10 5 -12 5 -5 -3 16 -17 137 -62 148 -55 7 4 8 -2 3 -18
-16 -51 -18 -69 -8 -69 16 0 23 16 25 60 1 22 5 40 9 40 4 0 8 7 8 15 0 8 -7
15 -15 15 -25 0 -145 58 -145 70 0 6 5 8 10 5 6 -3 10 -2 10 4 0 21 -19 20
-26 -1z m30 -50 c-5 -8 -2 -9 12 -4 10 4 15 4 11 0 -4 -4 10 -16 30 -26 36
-17 36 -18 8 -12 -38 7 -77 32 -70 44 4 6 8 10 11 10 3 0 2 -5 -2 -12z"/>
<path d="M1850 199 c-158 -39 -377 -43 -515 -9 -53 13 -64 12 -40 -3 11 -6 70
-19 130 -28 99 -15 123 -15 240 -2 72 8 164 23 205 35 122 33 107 39 -20 7z"/>
<path d="M1095 184 c-11 -11 -13 -20 -5 -28 5 -7 6 -16 2 -21 -4 -4 0 -6 8 -3
9 3 16 18 17 36 2 37 0 38 -22 16z"/>
<path d="M1123 112 c0 -9 -4 -38 -8 -64 -6 -38 -5 -48 6 -48 9 0 16 11 17 27
1 15 9 37 18 51 9 13 14 25 12 27 -2 1 -12 7 -23 13 -17 8 -21 7 -22 -6z"/>
<path d="M1710 63 c0 -41 14 -72 27 -60 4 5 3 11 -2 15 -6 4 -10 24 -10 45 0
20 -3 37 -7 37 -5 0 -8 -17 -8 -37z"/>
<path d="M1165 71 c-7 -13 4 -18 45 -20 65 -4 70 -5 70 -13 0 -4 8 -7 18 -6 9
0 42 -5 72 -10 83 -15 253 -16 244 -1 -4 8 -30 10 -80 7 -44 -3 -74 -1 -74 5
0 5 -15 7 -32 5 -18 -3 -40 -2 -48 2 -15 8 -175 40 -197 40 -6 0 -14 -4 -18
-9z"/>
</g>
</svg>
