<?xml version="1.0" standalone="no"?>
<!DOCTYPE svg PUBLIC "-//W3C//DTD SVG 20010904//EN"
 "http://www.w3.org/TR/2001/REC-SVG-20010904/DTD/svg10.dtd">
<svg version="1.0" xmlns="http://www.w3.org/2000/svg"
 width="509.000000pt" height="505.000000pt" viewBox="0 0 509.000000 505.000000"
 preserveAspectRatio="xMidYMid meet">
<metadata>
Created by potrace 1.16, written by Peter Selinger 2001-2019
</metadata>
<g transform="translate(0.000000,505.000000) scale(0.100000,-0.100000)"
fill="#000000" stroke="none">
<path d="M1881 5036 c-19 -7 -37 -18 -39 -24 -2 -8 -20 -10 -57 -6 -70 9 -105
-12 -139 -82 -14 -29 -26 -57 -26 -62 0 -5 -10 -16 -22 -24 -18 -12 -21 -24
-22 -81 -1 -37 -4 -67 -7 -67 -10 0 -31 -75 -27 -101 2 -16 13 -27 33 -34 45
-16 75 -38 75 -56 0 -9 -20 -26 -47 -40 -27 -13 -74 -45 -106 -71 -32 -27 -63
-48 -69 -48 -17 0 -185 -135 -303 -242 -26 -24 -30 -26 -33 -10 -6 30 -19 35
-57 22 -33 -11 -39 -10 -47 4 -6 10 -22 16 -43 16 -19 0 -37 5 -40 10 -9 15
-71 12 -113 -6 -20 -9 -57 -19 -81 -22 -41 -7 -45 -10 -55 -46 -14 -49 -41
-69 -60 -43 -16 21 -26 22 -26 2 0 -9 -7 -18 -15 -21 -18 -7 -98 -127 -132
-198 -59 -122 -55 -117 -88 -110 -40 8 -45 12 -45 32 0 13 -50 50 -55 39 0 -1
-19 -23 -43 -49 -26 -30 -42 -57 -42 -73 0 -26 -12 -52 -43 -94 -9 -13 -17
-39 -17 -57 0 -19 -4 -42 -9 -52 -5 -9 -14 -75 -21 -147 -6 -71 -15 -155 -19
-185 -39 -259 -41 -291 -41 -820 1 -517 1 -526 23 -591 32 -92 51 -119 87
-119 17 0 30 4 30 10 0 5 14 25 30 44 26 30 36 34 72 32 25 -1 44 -8 48 -17 4
-8 12 -24 18 -36 7 -13 12 -28 12 -33 0 -11 22 -63 62 -149 12 -24 24 -72 27
-107 4 -38 14 -71 24 -82 23 -25 84 -44 125 -40 29 3 38 11 63 56 16 29 29 64
29 77 0 21 32 55 52 55 5 0 8 -14 8 -31 0 -17 5 -40 11 -52 l12 -21 8 22 c12
33 22 27 48 -31 13 -28 32 -61 41 -72 10 -11 24 -32 31 -47 17 -34 88 -122
156 -196 29 -32 53 -60 53 -64 0 -3 24 -30 53 -60 30 -29 56 -61 60 -70 3 -10
13 -18 20 -18 8 0 27 -16 42 -36 15 -20 33 -33 40 -30 21 8 37 -19 29 -48 -5
-20 -2 -26 10 -26 28 0 40 -43 23 -76 -19 -36 -35 -220 -19 -210 6 3 13 2 17
-4 8 -13 -13 -50 -29 -50 -17 0 -23 -16 -22 -55 1 -38 58 -80 96 -70 14 4 59
11 100 15 41 5 87 11 102 13 25 4 28 1 34 -39 6 -44 20 -57 30 -29 11 29 24
15 24 -26 0 -64 24 -79 126 -79 l83 0 11 57 c22 113 30 133 46 126 11 -4 12
-9 3 -19 -13 -15 -39 -110 -39 -141 0 -20 5 -23 40 -23 22 0 40 4 40 9 0 5 16
5 38 0 20 -5 232 -9 471 -9 l434 0 -7 51 c-4 29 -10 65 -13 80 -3 17 -1 29 4
29 6 0 14 -36 17 -80 l7 -80 38 0 38 0 12 73 c7 39 14 79 14 87 1 8 22 29 46
48 36 27 52 33 80 30 58 -7 138 17 185 56 39 32 58 42 121 66 182 69 464 216
574 299 100 76 109 80 214 102 l92 18 70 -36 c38 -19 77 -42 86 -49 19 -17 72
-18 100 -3 23 12 89 111 89 133 0 8 -11 32 -25 52 -16 24 -23 44 -18 53 4 9 9
43 11 76 5 70 11 80 60 96 20 6 44 17 52 24 8 7 31 17 50 24 19 6 51 27 70 46
19 18 58 45 85 59 28 14 61 38 75 52 23 25 25 35 28 153 l4 127 -84 29 c-45
16 -76 31 -67 33 9 2 44 -6 78 -17 33 -12 63 -21 66 -21 3 0 5 19 3 42 l-3 42
-93 25 c-50 14 -90 30 -88 36 4 12 1 12 91 -19 95 -34 95 -34 95 19 0 43 -1
45 -38 54 -21 6 -52 14 -70 17 -18 4 -32 10 -32 15 0 12 18 11 65 -6 77 -28
97 -14 47 35 -42 42 -54 67 -42 90 5 10 10 32 10 47 0 20 10 39 31 59 l31 29
-3 318 c-2 174 -7 317 -11 317 -4 0 -8 -9 -8 -20 0 -11 -6 -23 -14 -26 -8 -3
-12 -13 -9 -23 6 -25 -46 -101 -70 -101 -10 0 -34 15 -53 34 -30 30 -34 40
-34 88 0 32 -10 81 -25 122 -14 38 -25 81 -25 96 0 15 -7 47 -15 71 -9 24 -15
56 -13 70 1 15 -2 33 -8 40 -6 8 -14 42 -17 76 -4 39 -17 83 -34 114 -16 32
-28 74 -31 108 -3 31 -13 67 -22 81 -10 14 -28 53 -39 85 -11 33 -28 65 -37
70 -38 23 -76 59 -90 86 -8 16 -32 41 -54 55 -22 15 -40 31 -40 37 0 5 -10 20
-22 33 -38 38 -64 77 -76 114 -7 21 -32 52 -62 78 -27 24 -50 51 -50 60 0 20
-42 74 -127 162 -67 70 -67 69 -32 147 22 49 16 71 -31 121 -23 24 -29 36 -21
45 6 8 8 45 3 103 -7 88 -8 91 -60 160 -59 80 -113 123 -193 154 -30 12 -63
30 -74 40 -40 37 -69 40 -435 40 -345 0 -360 -1 -370 -19 -5 -11 -10 -35 -10
-54 l0 -34 -47 9 c-27 5 -132 10 -235 11 l-188 2 0 32 c0 17 5 35 10 38 6 4
10 -6 10 -22 l0 -28 97 0 c54 0 150 -4 214 -8 l117 -9 4 41 c3 39 2 41 -24 41
-16 0 -28 -4 -28 -10 0 -6 -53 -10 -140 -10 -87 0 -140 4 -140 10 0 6 -41 10
-102 10 l-103 0 3 -55 c4 -53 5 -55 33 -55 16 0 29 -4 29 -10 0 -5 -15 -10
-34 -10 l-34 0 -7 65 -7 65 -196 -1 c-130 0 -209 -5 -231 -13z m545 -377 c-43
-5 -81 -11 -84 -14 -14 -13 14 -15 113 -5 118 11 381 -1 495 -23 63 -12 65
-14 63 -41 -1 -16 -4 -30 -7 -33 -2 -2 -37 3 -77 12 -87 19 -415 31 -528 18
-105 -11 -104 -30 1 -21 187 15 215 6 40 -13 -62 -7 -112 -17 -112 -22 0 -6
20 -7 53 -2 183 26 391 22 565 -10 45 -9 86 -13 91 -11 4 3 16 31 25 63 25 88
23 87 97 68 284 -71 458 -154 754 -360 91 -63 216 -176 208 -188 -3 -6 -1 -7
5 -4 11 8 117 -105 217 -233 72 -90 189 -282 225 -367 12 -29 25 -53 28 -53 2
0 11 8 18 18 22 30 31 13 125 -226 22 -56 82 -306 95 -392 18 -128 18 -479 0
-591 -25 -150 -48 -249 -89 -389 -41 -138 -44 -143 -67 -130 -20 11 -20 11 -1
48 40 79 105 348 127 521 18 151 18 449 -1 566 -39 243 -153 590 -186 569 -14
-8 -9 -33 35 -184 83 -279 106 -472 88 -724 -34 -462 -157 -850 -370 -1169
-103 -152 -176 -240 -314 -372 -313 -302 -585 -440 -1100 -559 -101 -23 -295
-39 -391 -32 -284 20 -632 106 -826 205 -51 27 -53 27 -73 -9 l-17 -30 47 -21
c204 -92 512 -178 737 -205 283 -35 642 4 935 103 173 58 426 198 608 335 161
122 353 330 482 523 45 67 186 329 201 372 3 10 17 8 54 -7 31 -13 39 -19 20
-15 -16 3 -36 7 -43 8 -8 1 -43 -56 -87 -140 -178 -345 -436 -639 -739 -842
-70 -47 -287 -171 -299 -171 -4 0 -35 -13 -69 -29 -261 -119 -685 -189 -978
-162 -276 26 -537 94 -807 209 -40 17 -73 28 -73 25 0 -4 -6 0 -12 9 -7 9 -55
40 -107 68 -108 60 -174 107 -286 205 -192 170 -276 268 -410 480 -190 300
-300 624 -336 983 -11 114 -8 308 8 405 5 33 3 37 -17 37 -18 0 -21 4 -16 28
3 15 8 50 12 77 15 119 83 359 144 505 166 401 481 777 863 1033 279 186 671
314 962 314 58 0 58 0 -19 -8z m-1669 -637 c-94 -130 -137 -198 -202 -317 -15
-27 -40 -72 -55 -100 -46 -83 -47 -93 -6 -101 20 -3 36 -12 36 -19 0 -9 -19
-6 -67 11 -100 33 -163 62 -163 74 0 14 2 14 72 -20 34 -16 62 -29 63 -27 2 1
42 74 91 162 107 194 241 397 257 388 4 -2 -8 -26 -26 -51z m113 -57 c0 -13
-9 -47 -20 -75 -11 -28 -20 -55 -20 -61 0 -6 9 -8 20 -4 11 3 20 2 20 -3 0
-11 -86 -128 -101 -137 -13 -9 -11 39 3 53 7 7 8 12 4 12 -11 0 -66 -53 -66
-63 0 -5 -27 -36 -60 -70 -57 -59 -60 -61 -75 -42 -17 23 -11 95 10 107 6 4
25 35 40 70 23 51 29 59 36 43 8 -22 12 -15 23 37 7 31 103 128 127 128 9 0
22 7 29 15 18 22 30 18 30 -10z"/>
<path d="M2250 4639 c-315 -65 -510 -141 -735 -287 -246 -159 -481 -384 -652
-622 -174 -243 -301 -553 -358 -875 -20 -108 -19 -139 1 -131 9 3 17 6 19 6 2
0 7 17 10 38 46 269 79 373 202 632 92 194 210 368 372 550 91 102 130 140
143 140 5 0 6 5 2 12 -4 6 -3 8 4 5 12 -8 98 61 94 75 -1 5 2 7 7 3 6 -3 27
12 48 33 43 43 111 93 98 72 -8 -12 20 2 92 48 13 8 20 19 16 25 -4 6 0 8 10
4 9 -3 18 0 21 9 3 9 10 13 15 10 14 -9 42 5 34 17 -3 5 -1 7 5 3 14 -9 63 14
55 27 -3 6 -1 7 5 3 6 -4 22 0 34 8 68 42 299 116 461 147 51 9 57 13 57 35 0
13 -3 24 -7 23 -5 -1 -28 -5 -53 -10z"/>
<path d="M3070 4530 c-7 -27 -16 -52 -20 -55 -5 -3 -47 1 -94 10 -136 23 -342
37 -453 29 l-103 -6 0 -33 0 -33 194 0 c200 0 356 -16 337 -35 -6 -6 -39 -9
-73 -7 -35 2 -148 4 -253 4 -192 0 -350 -19 -477 -57 -43 -14 -47 -13 -51 4
-3 12 -14 19 -30 19 -38 0 -41 17 -5 24 22 4 34 2 43 -10 10 -14 17 -15 46 -6
19 6 75 19 124 28 95 18 122 32 111 59 -7 20 -33 17 -201 -22 -113 -26 -233
-70 -320 -117 -32 -17 -53 -22 -59 -16 -6 6 -19 10 -29 10 -23 0 -174 -92
-272 -165 -38 -28 -73 -51 -77 -51 -3 1 -17 -9 -31 -22 -13 -13 -31 -22 -38
-20 -8 2 -13 -2 -12 -9 1 -6 -41 -49 -95 -96 -189 -163 -353 -398 -481 -686
-50 -111 -65 -153 -35 -98 8 15 23 27 34 27 19 0 19 -2 -4 -37 -66 -102 -136
-448 -136 -673 0 -212 20 -367 71 -545 117 -410 328 -757 604 -993 151 -130
242 -194 375 -264 41 -22 80 -44 85 -48 14 -10 238 -95 300 -113 149 -44 210
-58 310 -71 172 -23 311 -28 425 -17 58 6 135 14 173 18 37 3 67 10 67 15 0 5
-7 22 -16 39 -10 20 -21 28 -32 25 -320 -87 -797 -25 -1217 160 -183 80 -452
276 -592 430 -185 206 -301 390 -390 624 -87 229 -129 424 -140 653 l-6 137
24 0 24 0 0 -148 c1 -252 51 -507 141 -711 20 -46 66 -129 149 -269 97 -165
300 -377 485 -508 193 -137 450 -256 685 -318 197 -52 256 -58 504 -54 146 2
234 7 239 13 4 6 43 17 87 24 96 15 245 54 335 86 58 20 219 91 229 101 3 2
-5 14 -17 27 -12 13 -22 28 -22 35 0 6 39 34 86 62 236 139 474 378 629 633
46 77 165 326 165 346 0 6 4 11 10 11 13 0 -8 -56 -83 -212 -66 -137 -166
-298 -262 -418 -102 -128 -292 -294 -430 -375 -33 -19 -66 -39 -73 -43 -15
-10 -5 -42 13 -42 20 0 195 108 270 168 111 87 290 277 383 406 80 112 212
352 212 386 0 9 4 20 9 26 15 14 66 174 101 314 28 115 60 355 60 458 0 34 3
42 19 42 16 0 18 7 15 73 -3 65 -2 69 8 38 20 -59 -27 -545 -62 -636 -6 -15
-7 -31 -4 -36 3 -6 1 -15 -4 -22 -10 -13 -62 -169 -62 -187 0 -7 -37 -87 -82
-178 -148 -299 -342 -536 -603 -733 -194 -146 -446 -265 -700 -331 -107 -27
-110 -29 -88 -56 l18 -23 95 21 c172 37 350 107 511 201 235 137 509 404 682
664 82 124 182 317 179 348 0 9 2 16 6 13 4 -2 8 7 8 21 1 13 8 32 16 41 18
21 52 139 73 257 9 50 25 129 36 176 11 51 18 119 17 165 -1 72 -2 75 -8 29
-4 -32 -7 6 -8 105 -2 143 -14 295 -25 306 -2 3 -16 0 -31 -6 -30 -11 -30 -9
-10 -167 3 -23 1 -44 -3 -46 -21 -13 -30 15 -36 106 l-7 98 31 11 c28 9 30 14
25 41 -3 16 -6 38 -6 48 0 13 -7 19 -21 19 -17 0 -19 3 -11 13 8 10 2 47 -23
143 -40 153 -52 190 -94 272 -27 53 -29 63 -16 68 22 9 38 -15 85 -134 45
-113 99 -306 109 -392 4 -34 9 -50 14 -42 11 16 -25 193 -62 307 -42 129 -133
324 -206 440 -39 62 -60 104 -54 109 11 12 26 -6 85 -106 25 -43 48 -78 51
-78 8 0 -83 155 -145 246 -11 17 -11 16 -2 -4 8 -17 8 -27 0 -37 -13 -16 -50
-26 -50 -14 0 30 -201 243 -340 360 -133 112 -381 251 -597 335 -40 15 -73 32
-73 37 0 15 45 -1 204 -71 240 -106 410 -217 601 -393 44 -40 64 -56 45 -35
-60 66 -235 212 -327 274 -143 96 -297 175 -478 247 -93 37 -175 74 -181 81
-10 12 -14 5 -24 -36z m125 -151 c220 -56 470 -182 630 -316 142 -119 337
-339 406 -458 13 -22 35 -57 50 -78 48 -66 159 -343 181 -450 18 -85 19 -122
3 -106 -2 3 -20 60 -40 128 -51 178 -182 422 -330 616 -121 159 -338 355 -508
459 -168 103 -381 192 -507 211 -60 9 -80 15 -80 24 0 10 93 -4 195 -30z
m-245 -48 c31 -9 28 -10 -25 -6 -298 21 -385 18 -610 -21 -145 -25 -316 -80
-439 -140 -98 -49 -96 -48 -96 -33 0 22 291 140 420 171 152 35 287 47 500 43
118 -2 231 -8 250 -14z m-203 -43 c104 1 134 -2 143 -14 7 -7 24 -14 39 -14
43 0 97 -19 116 -40 14 -15 31 -20 75 -20 31 0 61 5 68 12 9 9 22 8 54 -2 24
-8 49 -13 56 -11 6 1 12 -5 12 -13 0 -16 10 -19 84 -31 43 -7 141 -49 151 -65
3 -6 14 -10 24 -10 10 0 25 -7 32 -17 8 -9 44 -36 82 -60 37 -24 114 -89 172
-146 57 -56 119 -116 137 -132 43 -40 167 -193 182 -225 6 -14 23 -43 37 -65
54 -85 97 -182 104 -235 4 -30 15 -73 25 -95 10 -22 29 -83 43 -135 24 -88 31
-127 42 -220 2 -19 9 -63 15 -98 7 -38 8 -73 3 -89 l-9 -27 -34 37 c-18 20
-40 37 -48 37 -8 0 -41 18 -74 40 -32 23 -63 38 -68 35 -5 -3 -26 3 -47 13
-21 10 -64 27 -96 37 -53 16 -58 20 -54 41 2 13 0 21 -4 18 -5 -3 -9 0 -9 6 0
7 -11 35 -25 63 -14 28 -23 57 -21 64 3 8 2 12 -3 9 -11 -7 -23 22 -15 35 3 5
0 17 -6 26 -9 15 -10 14 -4 -7 5 -19 4 -22 -6 -14 -7 7 -13 23 -13 37 -1 14
-5 23 -8 21 -6 -4 -59 69 -59 81 0 4 5 3 12 -1 7 -5 8 -3 4 5 -5 7 -11 10 -14
6 -9 -9 -122 107 -115 118 3 6 1 7 -4 4 -6 -4 -30 9 -54 27 -24 19 -82 58
-129 86 -47 29 -77 50 -67 46 11 -3 16 -2 12 5 -4 6 -14 8 -22 4 -20 -7 -55 4
-48 15 3 5 0 12 -6 16 -8 5 -9 3 -4 -6 17 -28 -59 0 -83 31 -26 33 -101 83
-189 127 -103 52 -213 84 -346 100 -109 13 -144 14 -229 3 -226 -28 -451 -124
-569 -242 -30 -30 -52 -43 -84 -47 -34 -6 -50 -16 -79 -50 -20 -24 -36 -47
-36 -50 0 -4 -39 -6 -86 -4 -100 4 -189 -14 -279 -58 -33 -16 -61 -27 -63 -25
-7 7 20 46 31 44 24 -3 37 1 37 12 0 5 -4 7 -10 4 -5 -3 -10 -1 -10 5 0 6 10
8 28 4 24 -7 26 -6 13 9 -7 10 -26 17 -42 17 -33 0 -41 10 -26 31 8 11 18 14
32 8 19 -7 19 -8 1 -8 -24 -1 -19 -6 15 -14 19 -5 26 -3 26 8 0 8 -4 15 -9 15
-4 0 -7 3 -7 8 1 4 1 9 0 12 -2 3 -4 21 -6 40 -1 19 -1 27 2 17 4 -14 11 -8
34 28 16 25 29 53 29 61 0 8 4 13 9 10 4 -3 17 4 27 16 19 20 19 21 -5 13 -16
-5 -21 -4 -17 4 4 6 13 11 20 11 7 0 21 7 32 16 18 15 18 15 -5 10 -22 -4 -23
-3 -9 10 8 8 27 16 42 18 37 4 59 26 25 26 -14 0 -30 -5 -36 -11 -9 -9 -11 -7
-7 9 5 16 17 22 64 27 40 5 64 13 77 27 18 20 18 20 -22 16 -22 -3 -49 -8 -60
-12 -11 -4 2 13 29 37 50 45 111 73 122 56 15 -25 128 6 171 48 26 24 52 41
86 56 15 6 27 15 27 19 0 4 9 8 19 8 11 0 23 5 26 10 3 6 14 10 24 10 10 0 24
7 31 15 11 13 4 15 -50 15 -51 0 -61 -3 -56 -15 3 -8 2 -15 -2 -15 -5 0 -23
-15 -41 -32 -19 -18 -41 -34 -50 -35 -9 -2 -31 -6 -48 -9 -21 -4 -33 -2 -33 5
0 6 -6 11 -14 11 -34 0 -22 21 36 63 35 24 86 56 113 69 60 30 260 96 313 103
93 12 132 13 137 4 4 -5 15 -9 26 -9 23 0 25 -13 4 -34 -30 -30 2 -55 70 -56
17 0 42 -6 57 -14 14 -8 42 -19 62 -26 20 -6 36 -16 36 -22 0 -5 14 -29 31
-53 17 -24 28 -48 24 -55 -12 -20 -57 -31 -157 -40 -62 -5 -103 -13 -112 -23
-30 -30 2 -37 165 -37 l158 0 32 -30 c23 -20 36 -27 43 -20 16 16 -5 41 -50
59 -68 27 -69 31 -30 57 20 14 36 28 37 32 0 4 2 20 4 36 3 19 -8 51 -31 94
-25 49 -31 68 -23 78 16 19 1 72 -22 79 -10 4 -19 11 -19 16 0 5 -9 9 -20 9
-11 0 -20 7 -20 15 0 18 -95 21 -181 5 -30 -6 -102 -14 -160 -18 -71 -6 -120
-15 -150 -29 -24 -11 -71 -26 -104 -32 -33 -7 -76 -18 -95 -26 -48 -19 -198
-47 -211 -39 -6 3 -19 -2 -29 -11 -11 -10 -26 -15 -36 -11 -15 6 -15 8 1 26
10 11 24 20 32 20 7 0 13 4 13 8 0 13 47 32 80 32 16 0 31 4 35 9 3 5 22 15
43 22 20 6 46 19 57 28 31 27 145 67 240 86 17 3 41 8 55 11 70 16 142 21 210
16 41 -3 134 -5 207 -4z m533 -17 c125 -49 182 -77 301 -147 314 -185 571
-471 744 -827 46 -94 21 -76 -29 21 -141 277 -260 433 -476 621 -151 131 -388
269 -552 321 -43 13 -78 28 -78 32 0 12 10 10 90 -21z m-1590 -46 c0 -3 -26
-22 -57 -42 -77 -48 -193 -134 -193 -142 0 -4 5 -12 12 -19 9 -9 -16 -38 -103
-124 -314 -311 -470 -576 -584 -992 -24 -86 -30 -61 -10 41 19 94 67 238 108
319 13 27 32 72 41 99 39 120 192 335 371 523 111 116 138 156 80 118 -40 -26
-174 -163 -243 -248 -62 -77 -171 -256 -226 -373 -16 -33 -31 -55 -33 -48 -2
6 17 49 43 95 26 46 67 119 92 163 56 99 170 242 283 356 48 48 95 99 105 114
14 21 19 24 26 12 6 -12 25 -4 100 46 140 91 188 118 188 102z m1125 -701
c137 -28 284 -102 373 -188 57 -54 122 -145 163 -228 l33 -68 82 1 c95 1 137
-15 192 -69 46 -47 67 -96 91 -222 12 -58 23 -115 26 -126 4 -20 13 -22 87
-25 66 -3 95 -10 141 -32 99 -49 193 -150 293 -314 31 -51 36 -101 18 -163
-29 -98 -173 -212 -302 -239 -85 -18 -2569 -15 -2644 3 -166 40 -255 121 -294
271 -17 62 -18 112 -2 156 16 48 67 121 89 126 24 7 24 15 -2 39 -78 70 -96
265 -36 393 28 61 88 137 141 181 97 80 266 149 406 165 90 11 213 -23 341
-92 3 -2 27 38 52 89 75 150 192 250 369 314 116 43 262 53 383 28z m-1801
-180 c-20 -43 -42 -97 -50 -119 -71 -197 -112 -355 -129 -497 -5 -42 -11 -58
-21 -58 -10 0 -13 6 -10 18 3 9 10 51 15 92 12 90 50 237 92 363 31 90 102
250 122 275 22 28 15 1 -19 -74z m153 64 c4 -7 8 -33 8 -58 l0 -45 60 3 c33 1
69 -2 80 -7 11 -5 28 -12 38 -15 32 -10 15 -36 -52 -80 -24 -15 -83 -65 -130
-111 -97 -93 -141 -116 -189 -96 -28 12 -30 16 -27 59 3 67 15 113 35 142 9
14 20 38 24 55 9 36 73 125 91 125 7 0 15 9 18 20 6 22 32 27 44 8z m-243
-530 c-8 -29 -18 -82 -24 -118 -21 -140 -17 -130 -54 -130 -22 0 -36 -6 -40
-16 -3 -9 -6 -88 -6 -177 0 -231 43 -468 121 -674 l8 -23 26 24 26 24 -20 33
c-23 41 -64 176 -85 279 -16 86 -30 279 -17 240 5 -14 9 -50 10 -81 2 -108 68
-381 109 -452 16 -27 16 -28 -13 -52 -26 -20 -28 -26 -18 -43 6 -11 30 -55 54
-98 98 -185 186 -303 343 -460 90 -89 187 -175 240 -212 49 -34 83 -62 75 -62
-31 0 -224 148 -339 261 -105 102 -240 286 -325 444 -21 39 -48 84 -61 102
-13 17 -24 35 -24 39 0 5 -15 58 -34 119 -41 132 -73 280 -86 395 -10 89 -14
369 -5 392 4 9 18 12 44 10 l38 -4 6 61 c8 75 47 231 57 231 5 0 2 -24 -6 -52z
m3569 -268 c0 -172 -5 -285 -17 -380 -19 -158 -22 -170 -42 -170 -8 0 -13 4
-10 9 4 5 16 69 27 143 18 110 21 182 22 416 1 175 5 272 10 255 5 -16 9 -138
10 -273z m-313 -976 c0 -16 -18 -56 -30 -64 -4 -3 -17 -23 -28 -46 -11 -22
-28 -46 -36 -53 -9 -8 -16 -18 -16 -24 0 -6 -9 -20 -20 -32 -164 -172 -210
-215 -227 -215 -10 0 -34 -11 -53 -25 -19 -14 -43 -25 -55 -25 -12 0 -32 -12
-46 -26 -13 -14 -59 -42 -101 -62 -43 -19 -78 -39 -78 -44 0 -4 -9 -8 -19 -8
-11 0 -22 -4 -25 -9 -10 -16 -152 -79 -194 -86 -23 -4 -52 -15 -65 -25 -18
-15 -43 -19 -108 -21 -64 -2 -96 -8 -134 -26 -34 -16 -67 -23 -105 -23 -235 2
-260 1 -258 -12 2 -9 -11 -13 -47 -13 -59 0 -77 4 -69 16 5 9 -10 11 -98 14
-26 1 -53 6 -60 12 -19 15 -164 47 -182 40 -9 -4 -32 1 -52 9 -20 8 -42 13
-49 10 -7 -2 -20 3 -28 12 -25 27 -157 88 -157 72 0 -17 -18 -11 -24 8 -3 9
-16 18 -29 18 -38 2 -77 33 -77 60 0 15 6 24 16 24 23 0 2 25 -39 45 -34 17
-52 10 -25 -9 17 -13 43 -66 32 -66 -3 0 -19 8 -35 17 -22 13 -27 22 -22 41 5
23 -23 62 -45 62 -6 0 -13 16 -16 35 -6 29 -11 35 -31 35 -27 0 -28 4 -27 100
0 29 6 48 17 56 15 11 15 14 0 38 -12 18 -37 32 -81 46 -35 11 -73 24 -84 30
-31 17 -24 38 15 46 19 3 39 12 46 20 6 8 23 14 38 14 14 0 33 5 41 10 13 8
12 10 -5 12 -11 1 66 4 170 8 197 6 219 5 208 -13 -3 -6 -1 -7 5 -3 7 4 26 0
44 -8 61 -27 113 -37 241 -43 107 -5 127 -9 128 -22 0 -10 2 -12 6 -3 2 6 18
12 34 12 17 0 28 -4 25 -8 -3 -5 18 -9 47 -9 29 0 136 -5 240 -9 123 -6 188
-6 190 1 2 6 40 10 88 9 53 0 73 2 54 7 -33 7 -28 8 70 14 53 2 77 9 160 41
20 8 29 9 95 13 29 1 32 3 18 12 -12 7 -24 6 -37 -1 -28 -14 -36 -13 -21 5 10
12 43 15 189 14 97 -1 219 -5 271 -9 l95 -7 -155 -3 c-129 -3 -144 -4 -90 -10
97 -11 214 -11 262 0 43 9 258 36 311 39 18 1 27 -4 27 -15z m-2625 -494 c16
-26 194 -141 310 -200 437 -223 903 -249 1400 -78 136 47 312 140 403 215 24
19 45 33 48 30 19 -18 -256 -186 -388 -237 -210 -81 -391 -118 -618 -127 -357
-13 -675 69 -978 252 -104 63 -219 154 -195 155 6 0 15 -4 18 -10z m1915 -254
c0 -4 -107 -57 -175 -86 -67 -29 -287 -85 -415 -106 -132 -21 -375 -15 -530
15 -110 20 -308 79 -362 107 -17 9 -50 22 -72 29 -28 9 -34 13 -18 14 12 1 41
-8 65 -19 75 -35 217 -79 346 -107 114 -24 146 -27 331 -27 168 0 227 4 325
22 149 28 286 69 395 121 77 36 110 48 110 37z"/>
<path d="M2573 3474 c-232 -35 -411 -172 -492 -377 -13 -31 -28 -60 -33 -63
-5 -3 -59 16 -121 42 -110 47 -114 48 -217 49 -147 0 -265 -40 -389 -133 -139
-105 -197 -235 -170 -386 12 -69 40 -126 64 -126 15 0 35 -29 35 -52 0 -8 -21
-29 -46 -46 -62 -44 -88 -104 -81 -186 11 -130 84 -229 195 -268 l67 -23 1310
0 1310 0 66 28 c124 52 199 138 199 226 0 44 -5 57 -42 103 -24 29 -61 80 -83
112 -75 111 -197 176 -330 176 -38 0 -66 5 -72 13 -16 19 -32 76 -43 154 -20
146 -58 216 -137 253 -41 19 -58 22 -124 17 -91 -7 -88 -10 -150 118 -36 75
-58 104 -130 177 -71 71 -103 94 -171 126 -139 65 -274 87 -415 66z m-357
-1055 c14 -23 113 -353 108 -361 -3 -4 -22 -8 -43 -8 -36 0 -38 2 -52 46 -8
25 -17 45 -21 45 -5 -1 -28 -1 -53 -1 -45 0 -45 0 -56 -45 -11 -45 -12 -45
-55 -45 -35 0 -44 3 -44 18 0 9 23 89 51 177 28 88 53 166 55 173 4 15 100 16
110 1z m334 4 c1 -21 59 -225 59 -208 0 11 11 64 23 118 l22 97 38 0 c33 0 38
-3 44 -27 3 -16 15 -57 25 -92 10 -35 19 -72 19 -82 0 -10 5 -19 10 -19 6 0
10 17 10 38 0 20 8 69 18 107 l18 70 42 3 c23 2 42 -1 42 -6 0 -4 -20 -88 -45
-185 -25 -98 -45 -180 -45 -182 0 -3 -15 -5 -34 -5 -27 0 -35 5 -44 28 -19 48
-35 106 -47 162 l-12 55 -12 -60 c-7 -33 -22 -88 -33 -122 -19 -61 -21 -63
-53 -63 -25 0 -34 5 -39 23 -17 58 -86 336 -86 346 0 12 80 16 80 4z m703 -12
c24 -9 67 -67 67 -90 0 -7 -19 -11 -50 -11 -43 0 -50 3 -50 19 0 28 -53 38
-85 17 -14 -9 -25 -23 -25 -30 0 -15 47 -36 120 -56 86 -23 111 -77 73 -157
-22 -48 -69 -67 -146 -60 -62 6 -89 22 -113 69 l-15 28 50 0 c41 0 51 -4 56
-20 4 -14 15 -20 35 -20 46 0 60 10 60 41 0 31 -23 49 -62 49 -13 0 -42 9 -66
20 -82 37 -93 145 -19 190 35 22 127 27 170 11z"/>
<path d="M526 2701 c-12 -35 -10 -373 3 -471 58 -423 211 -805 452 -1127 131
-174 314 -338 532 -475 l122 -77 17 22 c10 12 18 27 18 32 0 6 -33 26 -72 45
-161 77 -376 249 -524 419 -166 193 -339 501 -421 751 -80 245 -103 388 -112
675 -4 147 -9 221 -15 206z"/>
</g>
</svg>
